<svg width="56" height="56" viewBox="0 0 56 56" fill="none" xmlns="http://www.w3.org/2000/svg">
<path d="M37.3332 18.6667H18.6665V37.3333H37.3332V18.6667Z" stroke="#FF9100" stroke-width="1.5" stroke-linecap="round" stroke-linejoin="round"/>
<path d="M11.6665 51.3333C15.5165 51.3333 18.6665 48.1833 18.6665 44.3333V37.3333H11.6665C7.8165 37.3333 4.6665 40.4833 4.6665 44.3333C4.6665 48.1833 7.8165 51.3333 11.6665 51.3333Z" stroke="#FF9100" stroke-width="1.5" stroke-linecap="round" stroke-linejoin="round"/>
<path d="M11.6665 18.6667H18.6665V11.6667C18.6665 7.81666 15.5165 4.66666 11.6665 4.66666C7.8165 4.66666 4.6665 7.81666 4.6665 11.6667C4.6665 15.5167 7.8165 18.6667 11.6665 18.6667Z" stroke="#FF9100" stroke-width="1.5" stroke-linecap="round" stroke-linejoin="round"/>
<path d="M37.3335 18.6667H44.3335C48.1835 18.6667 51.3335 15.5167 51.3335 11.6667C51.3335 7.81666 48.1835 4.66666 44.3335 4.66666C40.4835 4.66666 37.3335 7.81666 37.3335 11.6667V18.6667Z" stroke="#FF9100" stroke-width="1.5" stroke-linecap="round" stroke-linejoin="round"/>
<path d="M44.3335 51.3333C48.1835 51.3333 51.3335 48.1833 51.3335 44.3333C51.3335 40.4833 48.1835 37.3333 44.3335 37.3333H37.3335V44.3333C37.3335 48.1833 40.4835 51.3333 44.3335 51.3333Z" stroke="#FF9100" stroke-width="1.5" stroke-linecap="round" stroke-linejoin="round"/>
</svg>
