<svg width="56" height="57" viewBox="0 0 56 57" fill="none" xmlns="http://www.w3.org/2000/svg">
<path d="M34.6502 9.71654V18.5832H31.1502V9.71654C31.1502 9.08654 30.5902 8.7832 30.2168 8.7832C30.1002 8.7832 29.9835 8.80654 29.8668 8.8532L11.3635 15.8299C10.1268 16.2965 9.3335 17.4632 9.3335 18.7932V20.3565C7.21016 21.9432 5.8335 24.4865 5.8335 27.3565V18.7932C5.8335 16.0165 7.53683 13.5432 10.1268 12.5632L28.6535 5.5632C29.1668 5.37654 29.7035 5.2832 30.2168 5.2832C32.5502 5.2832 34.6502 7.1732 34.6502 9.71654Z" fill="#FF9100"/>
<path d="M50.1664 34.3332V36.6665C50.1664 37.2965 49.6764 37.8098 49.0231 37.8332H45.6164C44.3798 37.8332 43.2598 36.9232 43.1664 35.7098C43.0964 34.9865 43.3764 34.3098 43.8431 33.8432C44.2631 33.3998 44.8464 33.1665 45.4764 33.1665H48.9998C49.6764 33.1898 50.1664 33.7032 50.1664 34.3332Z" fill="#FF9100"/>
<path d="M45.4535 30.7168H47.8335C49.1168 30.7168 50.1668 29.6668 50.1668 28.3835V27.3568C50.1668 22.5268 46.2235 18.5835 41.3935 18.5835H14.6068C12.6235 18.5835 10.8035 19.2368 9.3335 20.3568C7.21016 21.9435 5.8335 24.4868 5.8335 27.3568V43.0602C5.8335 47.8902 9.77683 51.8335 14.6068 51.8335H41.3935C46.2235 51.8335 50.1668 47.8902 50.1668 43.0602V42.6168C50.1668 41.3335 49.1168 40.2835 47.8335 40.2835H45.8035C43.5635 40.2835 41.4168 38.9068 40.8335 36.7368C40.3435 34.9635 40.9268 33.2602 42.0935 32.1168C42.9568 31.2302 44.1468 30.7168 45.4535 30.7168ZM32.6668 30.2502H16.3335C15.3768 30.2502 14.5835 29.4568 14.5835 28.5002C14.5835 27.5435 15.3768 26.7502 16.3335 26.7502H32.6668C33.6235 26.7502 34.4168 27.5435 34.4168 28.5002C34.4168 29.4568 33.6235 30.2502 32.6668 30.2502Z" fill="#FF9100"/>
</svg>
