<svg width="56" height="57" viewBox="0 0 56 57" fill="none" xmlns="http://www.w3.org/2000/svg">
<path d="M44.7999 34.9867C42.7932 36.83 40.1332 37.8567 37.4032 37.8334H14.8632C5.36652 37.1567 5.34319 23.3667 14.8632 22.69H14.9565C8.44652 4.58338 35.9565 -2.62662 39.1065 16.3667C47.9032 17.4867 51.4732 29.1767 44.7999 34.9867Z" fill="#FF9100"/>
<path d="M43.75 49.5002C43.75 50.4568 42.9567 51.2502 42 51.2502H32.6667C32.55 51.2502 32.4567 51.2502 32.34 51.2035C31.6633 52.9302 29.96 54.1668 28 54.1668C26.04 54.1668 24.3367 52.9302 23.66 51.2035C23.5433 51.2502 23.45 51.2502 23.3333 51.2502H14C13.0433 51.2502 12.25 50.4568 12.25 49.5002C12.25 48.5435 13.0433 47.7502 14 47.7502H23.3333C23.45 47.7502 23.5433 47.7502 23.66 47.7968C24.1267 46.5835 25.0833 45.6268 26.2967 45.1602C26.25 45.0435 26.25 44.9502 26.25 44.8335V37.8335H29.75V44.8335C29.75 44.9502 29.75 45.0435 29.7033 45.1602C30.9167 45.6268 31.8733 46.5835 32.34 47.7968C32.4567 47.7502 32.55 47.7502 32.6667 47.7502H42C42.9567 47.7502 43.75 48.5435 43.75 49.5002Z" fill="#FF9100"/>
</svg>
