<svg width="56" height="56" viewBox="0 0 56 56" fill="none" xmlns="http://www.w3.org/2000/svg">
<path d="M39.6665 23.3333H44.3332C48.9998 23.3333 51.3332 21 51.3332 16.3333V11.6667C51.3332 6.99999 48.9998 4.66666 44.3332 4.66666H39.6665C34.9998 4.66666 32.6665 6.99999 32.6665 11.6667V16.3333C32.6665 21 34.9998 23.3333 39.6665 23.3333Z" stroke="white" stroke-width="1.5" stroke-miterlimit="10" stroke-linecap="round" stroke-linejoin="round"/>
<path d="M11.6665 51.3333H16.3332C20.9998 51.3333 23.3332 49 23.3332 44.3333V39.6667C23.3332 35 20.9998 32.6667 16.3332 32.6667H11.6665C6.99984 32.6667 4.6665 35 4.6665 39.6667V44.3333C4.6665 49 6.99984 51.3333 11.6665 51.3333Z" stroke="white" stroke-width="1.5" stroke-miterlimit="10" stroke-linecap="round" stroke-linejoin="round"/>
<path d="M13.9998 23.3333C19.1545 23.3333 23.3332 19.1546 23.3332 14C23.3332 8.84533 19.1545 4.66666 13.9998 4.66666C8.84518 4.66666 4.6665 8.84533 4.6665 14C4.6665 19.1546 8.84518 23.3333 13.9998 23.3333Z" stroke="#FF9100" stroke-width="1.5" stroke-miterlimit="10" stroke-linecap="round" stroke-linejoin="round"/>
<path d="M41.9998 51.3333C47.1545 51.3333 51.3332 47.1546 51.3332 42C51.3332 36.8453 47.1545 32.6667 41.9998 32.6667C36.8452 32.6667 32.6665 36.8453 32.6665 42C32.6665 47.1546 36.8452 51.3333 41.9998 51.3333Z" stroke="#FF9100" stroke-width="1.5" stroke-miterlimit="10" stroke-linecap="round" stroke-linejoin="round"/>
</svg>
