<svg width="56" height="56" viewBox="0 0 56 56" fill="none" xmlns="http://www.w3.org/2000/svg">
<path d="M28 12.9733H51.3333" stroke="#FF9100" stroke-width="1.5" stroke-miterlimit="10" stroke-linecap="round" stroke-linejoin="round"/>
<path d="M33.18 4.66666H46.1533C50.3067 4.66666 51.3333 5.69332 51.3333 9.79999V19.39C51.3333 23.4967 50.3067 24.5233 46.1533 24.5233H33.18C29.0267 24.5233 28 23.4967 28 19.39V9.79999C28 5.69332 29.0267 4.66666 33.18 4.66666Z" stroke="#FF9100" stroke-width="1.5" stroke-linecap="round" stroke-linejoin="round"/>
<path d="M4.6665 39.8067H27.9998" stroke="#FF9100" stroke-width="1.5" stroke-miterlimit="10" stroke-linecap="round" stroke-linejoin="round"/>
<path d="M9.84651 31.5H22.8198C26.9732 31.5 27.9998 32.5267 27.9998 36.6333V46.2233C27.9998 50.33 26.9732 51.3567 22.8198 51.3567H9.84651C5.69317 51.3567 4.6665 50.33 4.6665 46.2233V36.6333C4.6665 32.5267 5.69317 31.5 9.84651 31.5Z" stroke="#FF9100" stroke-width="1.5" stroke-linecap="round" stroke-linejoin="round"/>
<path d="M51.3333 35C51.3333 44.03 44.03 51.3333 35 51.3333L37.45 47.25" stroke="#FF9100" stroke-width="1.5" stroke-linecap="round" stroke-linejoin="round"/>
<path d="M4.6665 21C4.6665 11.97 11.9698 4.66666 20.9998 4.66666L18.5499 8.74999" stroke="#FF9100" stroke-width="1.5" stroke-linecap="round" stroke-linejoin="round"/>
</svg>
