<svg width="56" height="56" viewBox="0 0 56 56" fill="none" xmlns="http://www.w3.org/2000/svg">
<path d="M51.3333 19.8334C51.3333 28.21 44.5433 35 36.1667 35C35.77 35 35.35 34.9767 34.9534 34.9534C34.37 27.5567 28.4433 21.63 21.0466 21.0467C21.0233 20.65 21 20.23 21 19.8334C21 11.4567 27.79 4.66669 36.1667 4.66669C44.5433 4.66669 51.3333 11.4567 51.3333 19.8334Z" stroke="#FF9100" stroke-width="1.5" stroke-linecap="round" stroke-linejoin="round"/>
<path d="M34.9998 36.1667C34.9998 44.5433 28.2098 51.3333 19.8332 51.3333C11.4565 51.3333 4.6665 44.5433 4.6665 36.1667C4.6665 27.79 11.4565 21 19.8332 21C20.2298 21 20.6498 21.0233 21.0465 21.0466C28.4431 21.63 34.3699 27.5567 34.9532 34.9534C34.9765 35.35 34.9998 35.77 34.9998 36.1667Z" stroke="#FF9100" stroke-width="1.5" stroke-linecap="round" stroke-linejoin="round"/>
<path d="M17.78 34.1133L19.8333 30.3333L21.8867 34.1133L25.6667 36.1666L21.8867 38.22L19.8333 42L17.78 38.22L14 36.1666L17.78 34.1133Z" stroke="#FF9100" stroke-width="1.5" stroke-linecap="round" stroke-linejoin="round"/>
</svg>
