<svg width="300" height="299" viewBox="0 0 300 299" fill="none" xmlns="http://www.w3.org/2000/svg">
<path d="M214.098 124.609C220.971 124.609 226.543 119.037 226.543 112.164C226.543 105.291 220.971 99.7186 214.098 99.7186C207.224 99.7186 201.652 105.291 201.652 112.164C201.652 119.037 207.224 124.609 214.098 124.609Z" fill="#FF9100"/>
<path d="M214.098 199.281C220.971 199.281 226.543 193.709 226.543 186.836C226.543 179.962 220.971 174.39 214.098 174.39C207.224 174.39 201.652 179.962 201.652 186.836C201.652 193.709 207.224 199.281 214.098 199.281Z" fill="#FF9100"/>
<path d="M246.449 161.945C253.323 161.945 258.894 156.373 258.894 149.5C258.894 142.626 253.323 137.054 246.449 137.054C239.576 137.054 234.004 142.626 234.004 149.5C234.004 156.373 239.576 161.945 246.449 161.945Z" fill="#FF9100"/>
<path d="M85.2812 124.609C92.1546 124.609 97.7265 119.037 97.7265 112.164C97.7265 105.291 92.1546 99.7186 85.2812 99.7186C78.4079 99.7186 72.8359 105.291 72.8359 112.164C72.8359 119.037 78.4079 124.609 85.2812 124.609Z" fill="#FF9100"/>
<path d="M85.2812 199.281C92.1546 199.281 97.7265 193.709 97.7265 186.836C97.7265 179.962 92.1546 174.39 85.2812 174.39C78.4079 174.39 72.8359 179.962 72.8359 186.836C72.8359 193.709 78.4079 199.281 85.2812 199.281Z" fill="#FF9100"/>
<path d="M52.9297 161.945C59.803 161.945 65.3749 156.373 65.3749 149.5C65.3749 142.626 59.803 137.054 52.9297 137.054C46.0563 137.054 40.4844 142.626 40.4844 149.5C40.4844 156.373 46.0563 161.945 52.9297 161.945Z" fill="#FF9100"/>
<path d="M198.535 77.3171C205.408 77.3171 210.98 71.7451 210.98 64.8718C210.98 57.9985 205.408 52.4265 198.535 52.4265C191.662 52.4265 186.09 57.9985 186.09 64.8718C186.09 71.7451 191.662 77.3171 198.535 77.3171Z" fill="#FF9100"/>
<path d="M101.457 77.3171C108.33 77.3171 113.902 71.7451 113.902 64.8718C113.902 57.9985 108.33 52.4265 101.457 52.4265C94.5837 52.4265 89.0117 57.9985 89.0117 64.8718C89.0117 71.7451 94.5837 77.3171 101.457 77.3171Z" fill="#FF9100"/>
<path d="M150.617 87.2734C157.49 87.2734 163.062 81.7014 163.062 74.8281C163.062 67.9548 157.49 62.3828 150.617 62.3828C143.744 62.3828 138.172 67.9548 138.172 74.8281C138.172 81.7014 143.744 87.2734 150.617 87.2734Z" fill="#FF9100"/>
<path d="M198.535 249.062C205.408 249.062 210.98 243.49 210.98 236.617C210.98 229.744 205.408 224.172 198.535 224.172C191.662 224.172 186.09 229.744 186.09 236.617C186.09 243.49 191.662 249.062 198.535 249.062Z" fill="#FF9100"/>
<path d="M101.457 249.062C108.33 249.062 113.902 243.49 113.902 236.617C113.902 229.744 108.33 224.172 101.457 224.172C94.5837 224.172 89.0117 229.744 89.0117 236.617C89.0117 243.49 94.5837 249.062 101.457 249.062Z" fill="#FF9100"/>
<path d="M150.617 239.106C157.49 239.106 163.062 233.534 163.062 226.661C163.062 219.787 157.49 214.215 150.617 214.215C143.744 214.215 138.172 219.787 138.172 226.661C138.172 233.534 143.744 239.106 150.617 239.106Z" fill="#FF9100"/>
<path d="M171.783 127.721C180.375 127.721 187.34 120.756 187.34 112.165C187.34 103.573 180.375 96.6079 171.783 96.6079C163.191 96.6079 156.227 103.573 156.227 112.165C156.227 120.756 163.191 127.721 171.783 127.721Z" fill="#FF9100"/>
<path d="M128.217 127.721C136.808 127.721 143.773 120.756 143.773 112.165C143.773 103.573 136.808 96.6079 128.217 96.6079C119.625 96.6079 112.66 103.573 112.66 112.165C112.66 120.756 119.625 127.721 128.217 127.721Z" fill="#FF9100"/>
<path d="M193.557 165.057C202.148 165.057 209.113 158.092 209.113 149.5C209.113 140.909 202.148 133.944 193.557 133.944C184.965 133.944 178 140.909 178 149.5C178 158.092 184.965 165.057 193.557 165.057Z" fill="#FF9100"/>
<path d="M106.447 165.057C115.039 165.057 122.004 158.092 122.004 149.5C122.004 140.909 115.039 133.944 106.447 133.944C97.8556 133.944 90.8906 140.909 90.8906 149.5C90.8906 158.092 97.8556 165.057 106.447 165.057Z" fill="#FF9100"/>
<path d="M128.217 202.393C136.808 202.393 143.773 195.428 143.773 186.836C143.773 178.244 136.808 171.28 128.217 171.28C119.625 171.28 112.66 178.244 112.66 186.836C112.66 195.428 119.625 202.393 128.217 202.393Z" fill="#FF9100"/>
<path d="M171.783 202.393C180.375 202.393 187.34 195.428 187.34 186.836C187.34 178.244 180.375 171.28 171.783 171.28C163.191 171.28 156.227 178.244 156.227 186.836C156.227 195.428 163.191 202.393 171.783 202.393Z" fill="#FF9100"/>
<path d="M150.003 41.5992C143.905 41.5992 139.051 36.7456 139.051 30.6474C139.051 24.5492 143.905 19.6956 150.003 19.6956C156.101 19.6956 160.955 24.5492 160.955 30.6474C160.955 36.7456 156.101 41.5992 150.003 41.5992Z" fill="#FF9100"/>
<path d="M215.33 44.9597C210.103 44.9597 205.871 40.7283 205.871 35.6257C205.871 30.5231 210.102 26.2917 215.205 26.2917C220.308 26.2917 224.664 30.5231 224.664 35.6257C224.664 40.7283 220.557 44.9597 215.33 44.9597Z" fill="#FF9100"/>
<path d="M84.6621 44.9595C79.5595 44.9595 75.3281 40.7281 75.3281 35.6256C75.3281 30.523 79.4351 26.2916 84.6621 26.2916H84.7867C89.8892 26.2916 94.1206 30.523 94.1206 35.6256C94.1206 40.7281 89.8891 44.9595 84.6621 44.9595Z" fill="#FF9100"/>
<path d="M150.003 278.682C143.905 278.682 139.051 273.829 139.051 267.73C139.051 261.632 143.905 256.779 150.003 256.779C156.101 256.779 160.955 261.632 160.955 267.73C160.955 273.829 156.101 278.682 150.003 278.682Z" fill="#FF9100"/>
<path d="M215.33 272.086C210.103 272.086 205.871 267.855 205.871 262.752C205.871 257.65 210.102 253.418 215.205 253.418C220.308 253.418 224.664 257.65 224.664 262.752C224.664 267.855 220.557 272.086 215.33 272.086Z" fill="#FF9100"/>
<path d="M84.6621 272.086C79.5595 272.086 75.3281 267.855 75.3281 262.752C75.3281 257.65 79.4351 253.418 84.6621 253.418H84.7867C89.8892 253.418 94.1206 257.65 94.1206 262.752C94.1206 267.855 89.8891 272.086 84.6621 272.086Z" fill="#FF9100"/>
<path d="M19.932 160.452C13.9583 160.452 8.98047 155.599 8.98047 149.625V149.5C8.98047 143.527 13.8338 138.549 19.932 138.549C26.0302 138.549 30.8839 143.402 30.8839 149.5C30.8839 155.599 25.9057 160.452 19.932 160.452Z" fill="#FF9100"/>
<path d="M47.3261 221.06C42.2236 221.06 37.9922 216.953 37.9922 211.726V211.602C37.9922 206.499 42.2236 202.268 47.3261 202.268C52.4287 202.268 56.6601 206.499 56.6601 211.602C56.6601 216.704 52.4287 221.06 47.3261 221.06Z" fill="#FF9100"/>
<path d="M47.3261 96.7322C42.2236 96.7322 37.9922 92.5009 37.9922 87.3983C37.9922 82.2957 42.2236 78.0643 47.3261 78.0643C52.4287 78.0643 56.6601 82.1713 56.6601 87.2738V87.3983C56.6601 92.5009 52.4287 96.7322 47.3261 96.7322Z" fill="#FF9100"/>
<path d="M280.675 160.452C274.701 160.452 269.723 155.599 269.723 149.625V149.5C269.723 143.527 274.576 138.549 280.675 138.549C286.773 138.549 291.626 143.402 291.626 149.5C291.626 155.599 286.648 160.452 280.675 160.452Z" fill="#FF9100"/>
<path d="M253.283 221.06C248.181 221.06 243.949 216.953 243.949 211.726V211.602C243.949 206.499 248.181 202.268 253.283 202.268C258.386 202.268 262.617 206.499 262.617 211.602C262.617 216.704 258.386 221.06 253.283 221.06Z" fill="#FF9100"/>
<path d="M253.283 96.7322C248.181 96.7322 243.949 92.5009 243.949 87.3983C243.949 82.2957 248.181 78.0643 253.283 78.0643C258.386 78.0643 262.617 82.1713 262.617 87.3983V87.5227C262.617 92.5009 258.386 96.7322 253.283 96.7322Z" fill="#FF9100"/>
</svg>
