<svg width="56" height="56" viewBox="0 0 56 56" fill="none" xmlns="http://www.w3.org/2000/svg">
<path d="M49.5832 29.7498C50.5632 29.7498 51.3332 28.9565 51.3332 27.9998C51.3332 27.0198 50.5632 26.2498 49.5832 26.2498H46.6665V21.1165H49.5832C50.5632 21.1165 51.3332 20.3465 51.3332 19.3665C51.3332 18.4098 50.5632 17.6165 49.5832 17.6165H46.1298C45.0098 13.9065 42.0932 10.9898 38.3832 9.86984V6.4165C38.3832 5.45984 37.5898 4.6665 36.6332 4.6665C35.6765 4.6665 34.8832 5.45984 34.8832 6.4165V9.33317H29.7498V6.4165C29.7498 5.45984 28.9565 4.6665 27.9998 4.6665C27.0432 4.6665 26.2498 5.45984 26.2498 6.4165V9.33317H21.1398V6.4165C21.1398 5.45984 20.3465 4.6665 19.3898 4.6665C18.4098 4.6665 17.6398 5.45984 17.6398 6.4165V9.86984C13.9065 10.9898 10.9898 13.9065 9.86984 17.6165H6.4165C5.45984 17.6165 4.6665 18.4098 4.6665 19.3665C4.6665 20.3465 5.45984 21.1165 6.4165 21.1165H9.33317V26.2498H6.4165C5.45984 26.2498 4.6665 27.0198 4.6665 27.9998C4.6665 28.9565 5.45984 29.7498 6.4165 29.7498H9.33317V34.8832H6.4165C5.45984 34.8832 4.6665 35.6532 4.6665 36.6332C4.6665 37.5898 5.45984 38.3832 6.4165 38.3832H9.86984C10.9665 42.0932 13.9065 45.0098 17.6398 46.1298V49.5832C17.6398 50.5398 18.4098 51.3332 19.3898 51.3332C20.3465 51.3332 21.1398 50.5398 21.1398 49.5832V46.6665H26.2732V49.5832C26.2732 50.5398 27.0432 51.3332 28.0232 51.3332C28.9798 51.3332 29.7732 50.5398 29.7732 49.5832V46.6665H34.8832V49.5832C34.8832 50.5398 35.6765 51.3332 36.6332 51.3332C37.5898 51.3332 38.3832 50.5398 38.3832 49.5832V46.1298C42.0932 45.0098 45.0098 42.0932 46.1298 38.3832H49.5832C50.5632 38.3832 51.3332 37.5898 51.3332 36.6332C51.3332 35.6532 50.5632 34.8832 49.5832 34.8832H46.6665V29.7498H49.5832ZM40.2732 33.2732C40.2732 37.1232 37.1232 40.2732 33.2732 40.2732H22.7265C18.8765 40.2732 15.7265 37.1232 15.7265 33.2732V22.7265C15.7265 18.8765 18.8765 15.7265 22.7265 15.7265H33.2732C37.1232 15.7265 40.2732 18.8765 40.2732 22.7265V33.2732Z" fill="#FF9100"/>
<path d="M23.3802 37.9167H32.6435C35.5602 37.9167 37.9402 35.5601 37.9402 32.6201V23.3567C37.9402 20.4401 35.5835 18.0601 32.6435 18.0601H23.3802C20.4635 18.0601 18.0835 20.4167 18.0835 23.3567V32.6201C18.0835 35.5601 20.4402 37.9167 23.3802 37.9167Z" fill="#FF9100"/>
</svg>
