<svg width="52" height="52" viewBox="0 0 52 52" fill="none" xmlns="http://www.w3.org/2000/svg">
<path d="M26.0002 34.0167V34.255C26.0002 34.8617 25.5235 35.3383 24.9168 35.3383H5.41683C4.81016 35.3383 4.3335 34.8617 4.3335 34.255V34.0167C4.3335 30.2033 5.28683 29.25 9.1435 29.25H21.1902C25.0468 29.25 26.0002 30.2033 26.0002 34.0167Z" fill="#FF9100"/>
<path d="M5.41683 37.5049C4.81016 37.5049 4.3335 37.9815 4.3335 38.5882V40.7549V42.8999C4.3335 46.7132 5.28683 47.6666 9.1435 47.6666H21.1902C25.0468 47.6666 26.0002 46.7132 26.0002 42.8999V40.7549V38.5882C26.0002 37.9815 25.5235 37.5049 24.9168 37.5049H5.41683Z" fill="#FF9100"/>
<path d="M47.6667 32.5C47.6667 40.885 40.885 47.6667 32.5 47.6667L34.775 43.875" stroke="#FF9100" stroke-width="1.5" stroke-linecap="round" stroke-linejoin="round"/>
<path d="M4.3335 19.4999C4.3335 11.1149 11.1152 4.33325 19.5002 4.33325L17.2252 8.12492" stroke="#FF9100" stroke-width="1.5" stroke-linecap="round" stroke-linejoin="round"/>
<path d="M40.0835 23.8333C45.4683 23.8333 49.8335 19.468 49.8335 14.0833C49.8335 8.69848 45.4683 4.33325 40.0835 4.33325C34.6987 4.33325 30.3335 8.69848 30.3335 14.0833C30.3335 19.468 34.6987 23.8333 40.0835 23.8333Z" fill="#FF9100"/>
</svg>
