<svg width="52" height="52" viewBox="0 0 52 52" fill="none" xmlns="http://www.w3.org/2000/svg">
<path d="M40.1702 9.03505L28.2536 4.57172C27.0186 4.11672 25.0036 4.11672 23.7686 4.57172L11.8519 9.03505C9.55523 9.90172 7.69189 12.5884 7.69189 15.0367V32.5867C7.69189 34.3417 8.84023 36.6601 10.2486 37.7001L22.1652 46.6051C24.2669 48.1867 27.7119 48.1867 29.8136 46.6051L41.7302 37.7001C43.1386 36.6384 44.2869 34.3417 44.2869 32.5867V15.0367C44.3086 12.5884 42.4452 9.90172 40.1702 9.03505ZM27.6252 27.8851V33.5834C27.6252 34.4717 26.8886 35.2084 26.0002 35.2084C25.1119 35.2084 24.3752 34.4717 24.3752 33.5834V27.8851C22.1869 27.1917 20.5836 25.1551 20.5836 22.7501C20.5836 19.7601 23.0102 17.3334 26.0002 17.3334C28.9902 17.3334 31.4169 19.7601 31.4169 22.7501C31.4169 25.1767 29.8136 27.1917 27.6252 27.8851Z" fill="#FF9100"/>
</svg>
