<svg xmlns="http://www.w3.org/2000/svg" version="1.1" xmlns:xlink="http://www.w3.org/1999/xlink" xmlns:svgjs="http://svgjs.dev/svgjs" width="48" height="42"><svg width="48" height="42" viewBox="0 0 48 42" fill="none" xmlns="http://www.w3.org/2000/svg">
<g clip-path="url(#clip0_649_10457)">
<path d="M0.0216046 19.228C0.017236 18.6711 0.169409 18.1429 0.336144 17.6205C0.56768 16.8937 0.896781 16.2079 1.33291 15.5805C1.84914 14.8371 2.44108 14.1578 3.13787 13.5663C3.63225 13.1468 4.14848 12.7611 4.70402 12.4316C5.32217 12.0646 5.96509 11.7465 6.64732 11.5055C7.23999 11.2961 7.8363 11.1104 8.46101 11.0197C9.39225 10.8837 10.3199 10.7844 11.2657 10.9298C11.8678 11.0219 12.4612 11.1413 13.0233 11.3565C13.5941 11.5745 14.1293 11.8753 14.6142 12.2589C14.9331 12.5114 15.209 12.8014 15.4915 13.0885C15.5032 13.1001 15.5141 13.1116 15.5258 13.1224L15.5367 13.1339C15.6466 13.3116 15.7558 13.4908 15.868 13.6678C16.4257 14.55 16.6398 15.5315 16.6631 16.5519C16.6827 17.4341 16.4155 18.2695 16.093 19.0805C15.8374 19.7224 15.4617 20.3017 15.0685 20.8723C14.5334 21.6487 13.8759 22.3093 13.1434 22.8914C12.0586 23.7535 10.8485 24.3997 9.51457 24.8163C8.08386 25.2632 6.6313 25.4143 5.14452 25.1927C3.89291 25.0063 2.77018 24.5357 1.80836 23.7125C1.75812 23.6693 1.70861 23.6254 1.63507 23.629C1.24845 23.1598 0.806496 22.7202 0.581514 22.151C0.317941 21.4854 -0.00387893 20.8262 0.0208765 20.0807C0.0703873 19.7965 0.068203 19.513 0.0223327 19.2288L0.0216046 19.228ZM7.406 22.4978C8.30083 22.5252 9.33983 22.1985 10.3031 21.6595C10.9759 21.2824 11.5991 20.8298 12.1139 20.2347C12.7437 19.5065 13.1915 18.7013 13.3662 17.7579C13.4929 17.0729 13.4521 16.3929 13.158 15.7532C12.5165 14.3557 11.3181 13.7642 9.85387 13.6541C8.28991 13.5368 6.88468 14.029 5.62215 14.9264C4.89405 15.4437 4.28827 16.082 3.82811 16.8441C3.5842 17.2477 3.4313 17.696 3.30388 18.1465C3.2034 18.502 3.22816 18.8762 3.23034 19.2446C3.23471 20.0527 3.53396 20.7449 4.10188 21.3155C4.94356 22.1611 5.99203 22.5014 7.40672 22.4978H7.406Z" fill="#F3BB35"></path>
<path d="M1.63476 23.6291C1.7083 23.6255 1.75781 23.6693 1.80804 23.7125C2.76987 24.5357 3.8926 25.0063 5.1442 25.1927C6.63171 25.4143 8.08427 25.2632 9.51426 24.8164C10.8481 24.3997 12.0582 23.7535 13.1431 22.8915C13.8763 22.3093 14.5331 21.648 15.0682 20.8723C15.4614 20.3017 15.8371 19.7224 16.0926 19.0806C16.4152 18.2696 16.6824 17.4334 16.6627 16.5519C16.6394 15.5316 16.4254 14.5508 15.8677 13.6678C15.7555 13.4908 15.647 13.3116 15.5364 13.1339C15.7009 13.2368 15.8167 13.3894 15.939 13.534C16.2441 13.8931 16.4742 14.3025 16.7159 14.7033C17.3763 15.7978 17.6442 16.9808 17.4906 18.2422C17.3537 19.372 16.9904 20.4298 16.3671 21.3998C15.9186 22.0985 15.4221 22.7519 14.8199 23.329C14.0554 24.0615 13.2065 24.6832 12.2708 25.1805C11.6782 25.4957 11.0571 25.7633 10.4142 25.9627C9.30384 26.3073 8.16654 26.4664 6.99649 26.452C6.3958 26.4448 5.81332 26.3426 5.24395 26.2095C4.4212 26.0166 3.64359 25.6662 2.98029 25.1387C2.47134 24.7336 1.97332 24.2997 1.65951 23.7096C1.64641 23.6852 1.64204 23.6564 1.6333 23.6298L1.63476 23.6291Z" fill="#CD6A19"></path>
<path d="M0.022025 19.228C0.0678953 19.5123 0.0700796 19.7965 0.0205688 20.08C-0.00637088 19.7958 -0.00782708 19.5115 0.022025 19.228Z" fill="#F3BB35"></path>
<path d="M31.9561 27.8479C31.9677 27.8594 31.9787 27.8716 31.9896 27.8832C31.9641 27.8846 31.9554 27.8709 31.9561 27.8479Z" fill="#CD6A19"></path>
<path d="M15.5259 13.1217C15.5143 13.1101 15.5033 13.0986 15.4917 13.0878C15.5223 13.0806 15.5281 13.0979 15.5259 13.1217Z" fill="#CD6A19"></path>
<path d="M21.5083 12.6403C21.517 12.6547 21.5265 12.669 21.5352 12.6827C21.5075 12.6798 21.4995 12.6654 21.5083 12.6403Z" fill="#CD6A19"></path>
<path d="M21.4784 12.5935C21.485 12.6036 21.4922 12.6137 21.4988 12.6237C21.474 12.6252 21.4682 12.6151 21.4784 12.5935Z" fill="#CD6A19"></path>
<path d="M7.40622 22.497C5.99225 22.5006 4.94306 22.1603 4.10137 21.3148C3.53346 20.7441 3.23421 20.0519 3.22984 19.2438C3.22765 18.8754 3.2029 18.5012 3.30338 18.1457C3.43079 17.6953 3.58442 17.247 3.82761 16.8433C4.28777 16.0812 4.89355 15.443 5.62165 14.9256C6.88417 14.0282 8.28941 13.5361 9.85336 13.6533C11.3176 13.7634 12.516 14.3549 13.1575 15.7524C13.4509 16.3921 13.4917 17.0714 13.3657 17.7571C13.1917 18.7005 12.7432 19.5057 12.1134 20.2339C11.5993 20.829 10.9754 21.2817 10.3026 21.6587C9.34005 22.1984 8.30033 22.5244 7.40549 22.497H7.40622ZM8.58356 15.5948C7.42078 15.5826 6.15534 16.4533 5.8277 17.6873C5.39084 19.3345 6.53032 20.6679 8.19985 20.557C9.49732 20.4714 10.7489 19.4669 10.9026 18.032C10.9521 17.5686 10.9004 17.1131 10.6608 16.7044C10.2007 15.92 9.48349 15.5862 8.58356 15.5948Z" fill="#CD6A19"></path>
<path d="M37.6098 26.9924C36.5832 27.0283 35.6956 26.7556 34.9217 26.1627C34.1521 25.5733 33.7181 24.7868 33.6584 23.824C33.5754 22.4863 34.1062 21.3796 34.9806 20.3866C35.5835 19.7022 36.2919 19.1705 37.1052 18.7754C38.1078 18.2875 39.173 18.004 40.2965 18.1026C41.7374 18.2293 42.9439 18.7869 43.6035 20.1491C44.0411 21.0529 44.004 21.9927 43.6698 22.9202C43.1587 24.3385 42.1808 25.3675 40.8761 26.1109C39.8516 26.6944 38.7631 27.0485 37.6098 26.9931V26.9924ZM42.2514 22.4813C42.234 22.4136 42.1655 22.3647 42.1124 22.3057C41.4767 21.6055 40.8411 20.9061 40.2055 20.2074C39.9142 19.8872 39.6223 19.5684 39.3303 19.2496C39.2495 19.1611 39.1687 19.0992 39.0544 19.2136C38.7311 19.5375 38.3583 19.8051 38.0292 20.1246C37.5719 20.5679 37.0783 20.9737 36.5985 21.394C36.2009 21.7415 35.8019 22.0869 35.4015 22.4316C35.2923 22.5252 35.2733 22.6101 35.3811 22.7245C35.6636 23.0224 35.9585 23.3124 36.2104 23.6348C36.8184 24.4141 37.5705 25.066 38.185 25.8389C38.2942 25.9763 38.4093 26.0072 38.5483 25.8576C38.6728 25.7244 38.8185 25.61 38.9553 25.4884C39.3995 25.0941 39.8436 24.699 40.2885 24.3054C40.9147 23.7513 41.5423 23.198 42.1684 22.6439C42.2121 22.605 42.2587 22.5655 42.2507 22.482L42.2514 22.4813Z" fill="#CD6A19"></path>
<path d="M17.5051 38.1782C16.7122 38.184 15.9572 38.0192 15.2669 37.6364C14.3357 37.1197 13.7387 36.326 13.5603 35.2913C13.4518 34.6624 13.4846 34.0111 13.7219 33.3894C13.8617 33.0239 13.9833 32.6533 14.1966 32.3187C15.042 30.9961 16.2244 30.0923 17.6952 29.5368C18.4764 29.2417 19.2853 29.1216 20.1146 29.1539C21.1536 29.1942 22.1104 29.4878 22.877 30.2124C23.4442 30.7485 23.7806 31.4127 23.8789 32.1956C23.9292 32.5986 23.8906 32.9821 23.8156 33.3786C23.6983 33.9982 23.4821 34.5753 23.1515 35.1063C22.8821 35.5395 22.5254 35.908 22.1628 36.2699C21.6247 36.806 20.9956 37.2118 20.3112 37.5277C19.8336 37.7487 19.3421 37.9444 18.815 38.0437C18.3803 38.1257 17.9456 38.1689 17.5051 38.1775V38.1782ZM21.5541 34.5731C21.5963 34.5731 21.6859 34.5738 21.7754 34.5731C21.8482 34.5724 21.9109 34.5494 21.9283 34.4702C22.0077 34.1025 22.0871 33.7348 22.1621 33.3664C22.1839 33.2577 22.1322 33.2038 22.015 33.1987C21.7762 33.1872 21.5381 33.1692 21.3 33.1498C20.7859 33.1095 20.2726 33.0649 19.7593 33.026C19.6494 33.0174 19.5882 32.98 19.6071 32.8627C19.6465 32.6151 19.68 32.3662 19.728 32.1201C19.8176 31.6566 19.9151 31.194 20.0098 30.732C20.0462 30.5535 20.0178 30.4708 19.7914 30.4787C19.519 30.488 19.2431 30.4405 18.9708 30.4039C18.7123 30.3686 18.6613 30.3938 18.6133 30.6579C18.4975 31.2954 18.317 31.92 18.2354 32.5655C18.2223 32.6698 18.2471 32.9073 18.0119 32.9037C17.8102 32.9001 17.6092 32.8735 17.4083 32.8605C16.8491 32.8245 16.2899 32.7922 15.7307 32.7533C15.5859 32.7432 15.516 32.7936 15.4803 32.9361C15.4067 33.234 15.3995 33.5412 15.2873 33.8356C15.1839 34.1061 15.2138 34.1169 15.516 34.1306C15.5829 34.1335 15.6499 34.1464 15.7169 34.15C16.3336 34.1853 16.9467 34.2803 17.5663 34.2702C17.8641 34.2651 17.8932 34.2918 17.8299 34.5796C17.8233 34.6084 17.8153 34.6372 17.8073 34.6652C17.6143 35.3129 17.4862 35.9734 17.3879 36.6405C17.3668 36.7851 17.3872 36.8413 17.543 36.8506C17.8415 36.8672 18.1386 36.906 18.4364 36.9269C18.7706 36.9499 18.7742 36.9362 18.8383 36.606C18.9686 35.9396 19.1084 35.2747 19.2409 34.6084C19.2722 34.4494 19.3421 34.3983 19.5198 34.4155C20.1816 34.4796 20.8456 34.5206 21.5563 34.5738L21.5541 34.5731Z" fill="#CD6A19"></path>
<path d="M23.1398 8.14421C23.091 7.34979 23.4055 6.6007 23.8089 5.86816C24.0878 5.36229 24.4685 4.95501 24.8828 4.56068C25.442 4.02746 26.0922 3.63745 26.7824 3.30788C27.903 2.77395 29.0891 2.58901 30.3159 2.7833C31.4787 2.96751 32.4311 3.51224 33.0317 4.54844C33.4271 5.23061 33.505 5.97106 33.4016 6.74605C33.3004 7.50666 33.0237 8.19746 32.589 8.82062C31.7561 10.0137 30.6239 10.8347 29.2522 11.3284C27.9496 11.7968 26.6339 11.8601 25.3219 11.36C24.4227 11.0168 23.7616 10.4131 23.3604 9.5402C23.2395 9.27827 23.1376 8.66807 23.1398 8.14421ZM31.0491 5.09964C30.9581 5.11188 30.9202 5.11404 30.8846 5.12195C29.946 5.3148 28.9915 5.40547 28.0472 5.5645C27.1749 5.71129 26.3012 5.84801 25.4275 5.98329C25.2622 6.0092 25.2418 6.06101 25.3386 6.19269C26.3187 7.52321 27.2958 8.85516 28.2736 10.1871C28.4068 10.3684 28.4294 10.3692 28.535 10.1662C29.2245 8.83933 29.9133 7.51241 30.6006 6.18406C30.7593 5.8768 30.9137 5.56737 31.0666 5.25651C31.1008 5.18671 31.154 5.09389 31.0506 5.09964H31.0491Z" fill="#CD6A19"></path>
<path d="M8.58448 15.5949C9.48441 15.5863 10.2016 15.9209 10.6617 16.7045C10.9013 17.1125 10.953 17.5687 10.9035 18.0321C10.7498 19.467 9.49825 20.4715 8.20077 20.5571C6.53197 20.6672 5.39176 19.3339 5.82862 17.6874C6.15627 16.4534 7.4217 15.5827 8.58448 15.5949Z" fill="#F3BB35"></path>
<path d="M42.2518 22.4813C42.2598 22.5655 42.2125 22.6051 42.1695 22.6432C41.5434 23.1973 40.9157 23.7507 40.2896 24.3047C39.8447 24.6984 39.4006 25.0934 38.9564 25.4877C38.8195 25.6093 38.6732 25.7238 38.5494 25.8569C38.4104 26.0066 38.2953 25.9756 38.1861 25.8382C37.5716 25.0653 36.8195 24.4134 36.2115 23.6341C35.9603 23.3117 35.6647 23.0224 35.3822 22.7238C35.2737 22.6094 35.2934 22.5245 35.4026 22.4309C35.803 22.0863 36.202 21.7409 36.5996 21.3933C37.0794 20.9738 37.573 20.5672 38.0303 20.124C38.3594 19.8045 38.7322 19.5368 39.0555 19.213C39.1698 19.0978 39.2506 19.1597 39.3314 19.2489C39.6234 19.5677 39.9153 19.8872 40.2066 20.2067C40.8429 20.9061 41.4786 21.6056 42.1135 22.305C42.1666 22.364 42.2351 22.413 42.2525 22.4806L42.2518 22.4813Z" fill="#F3BB35"></path>
<path d="M21.5537 34.5732C20.8431 34.52 20.1791 34.479 19.5172 34.4149C19.3396 34.3976 19.2704 34.4487 19.2384 34.6078C19.1059 35.2741 18.9653 35.9383 18.8357 36.6053C18.7717 36.9356 18.768 36.9493 18.4338 36.9263C18.1353 36.9054 17.8382 36.8673 17.5404 36.85C17.3846 36.8413 17.3642 36.7845 17.3854 36.6399C17.4836 35.9721 17.6118 35.3122 17.8047 34.6646C17.8135 34.6365 17.8215 34.6078 17.8273 34.579C17.8907 34.2911 17.8615 34.2645 17.5637 34.2696C16.9441 34.2796 16.3311 34.1846 15.7144 34.1494C15.6474 34.1458 15.5804 34.1328 15.5134 34.13C15.2112 34.1163 15.1814 34.1062 15.2848 33.8349C15.3969 33.5406 15.4042 33.2326 15.4777 32.9354C15.5127 32.7922 15.5826 32.7419 15.7282 32.7527C16.2874 32.7915 16.8466 32.8239 17.4057 32.8599C17.6074 32.8728 17.8084 32.8995 18.0093 32.9031C18.2445 32.9074 18.2198 32.6692 18.2329 32.5649C18.3144 31.9194 18.4957 31.2948 18.6107 30.6572C18.6588 30.3924 18.7098 30.3672 18.9682 30.4032C19.2406 30.4406 19.5165 30.4874 19.7888 30.4781C20.0145 30.4701 20.0436 30.5536 20.0072 30.7314C19.9119 31.194 19.815 31.656 19.7255 32.1194C19.6781 32.3655 19.6446 32.6145 19.6046 32.862C19.5857 32.9793 19.6476 33.0175 19.7568 33.0254C20.2708 33.0642 20.7841 33.1089 21.2974 33.1492C21.5355 33.1679 21.7743 33.1866 22.0124 33.1981C22.1297 33.2038 22.1814 33.2571 22.1595 33.3658C22.0845 33.7342 22.0052 34.1019 21.9258 34.4696C21.909 34.5488 21.8464 34.5718 21.7729 34.5725C21.6833 34.5739 21.593 34.5725 21.5515 34.5725L21.5537 34.5732Z" fill="#F3BB35"></path>
<path d="M31.0489 5.09974C31.1523 5.09398 31.0992 5.18753 31.065 5.25661C30.912 5.56675 30.7584 5.87689 30.599 6.18415C29.9116 7.51179 29.2236 8.83942 28.5333 10.1663C28.4278 10.3693 28.4059 10.3685 28.272 10.1872C27.2941 8.85525 26.317 7.5233 25.337 6.19279C25.2401 6.06111 25.2605 6.0093 25.4258 5.98339C26.2995 5.84811 27.174 5.71139 28.0455 5.56459C28.9899 5.40556 29.9444 5.3149 30.8829 5.12205C30.9193 5.11485 30.9565 5.11197 31.0475 5.09974H31.0489Z" fill="#F3BB35"></path>
<path d="M10.4562 34.7747C10.4518 34.2177 10.604 33.6895 10.7707 33.1671C11.0022 32.4403 11.3314 31.7546 11.7675 31.1271C12.2837 30.3838 12.8757 29.7045 13.5724 29.113C14.0668 28.6935 14.583 28.3078 15.1386 27.9782C15.7567 27.6112 16.3997 27.2931 17.0819 27.0521C17.6746 26.8427 18.2709 26.657 18.8956 26.5664C19.8268 26.4304 20.7544 26.3311 21.7002 26.4764C22.3024 26.5685 22.8958 26.688 23.4579 26.9031C24.0287 27.1212 24.5638 27.4219 25.0488 27.8055C25.3677 28.0581 25.6436 28.3481 25.9261 28.6352C25.9378 28.6467 25.9487 28.6582 25.9603 28.669L25.9713 28.6805C26.0812 28.8582 26.1904 29.0374 26.3025 29.2144C26.8603 30.0966 27.0743 31.0782 27.0976 32.0985C27.1173 32.9807 26.8501 33.8162 26.5275 34.6271C26.272 35.269 25.8963 35.8483 25.5031 36.4189C24.9679 37.1953 24.3105 37.8559 23.578 38.4381C22.4931 39.3001 21.283 39.9463 19.9491 40.363C18.5184 40.8098 17.0659 40.9609 15.5791 40.7393C14.3275 40.5529 13.2048 40.0823 12.2429 39.2591C12.1927 39.2159 12.1432 39.172 12.0696 39.1756C11.683 38.7065 11.2411 38.2668 11.0161 37.6976C10.7525 37.032 10.4307 36.3729 10.4554 35.6274C10.505 35.3431 10.5028 35.0596 10.4569 34.7754L10.4562 34.7747ZM17.8406 38.0445C18.7354 38.0718 19.7744 37.7451 20.7377 37.2061C21.4104 36.8291 22.0337 36.3765 22.5485 35.7814C23.1783 35.0531 23.626 34.2479 23.8008 33.3046C23.9275 32.6195 23.8867 31.9395 23.5926 31.2998C22.9511 29.9024 21.7526 29.3109 20.2884 29.2008C18.7245 29.0835 17.3192 29.5757 16.0567 30.473C15.3286 30.9904 14.7228 31.6286 14.2627 32.3907C14.0188 32.7944 13.8659 33.2427 13.7384 33.6931C13.638 34.0486 13.6627 34.4228 13.6649 34.7912C13.6693 35.5993 13.9685 36.2916 14.5364 36.8622C15.3781 37.7077 16.4266 38.0481 17.8413 38.0445H17.8406Z" fill="#F3BB35"></path>
<path d="M12.0688 39.1763C12.1424 39.1727 12.1919 39.2166 12.2421 39.2598C13.2039 40.083 14.3267 40.5536 15.5783 40.74C17.0658 40.9616 18.5184 40.8105 19.9483 40.3636C21.2822 39.947 22.4923 39.3008 23.5772 38.4387C24.3104 37.8566 24.9671 37.1953 25.5023 36.4196C25.8955 35.8489 26.2712 35.2697 26.5267 34.6278C26.8493 33.8168 27.1165 32.9807 27.0968 32.0992C27.0735 31.0788 26.8595 30.098 26.3017 29.2151C26.1896 29.0381 26.0811 28.8589 25.9705 28.6812C26.135 28.7841 26.2508 28.9366 26.3731 29.0812C26.6782 29.4403 26.9082 29.8498 27.15 30.2506C27.8104 31.3451 28.0783 32.5281 27.9247 33.7895C27.7878 34.9192 27.4245 35.977 26.8012 36.947C26.3527 37.6457 25.8561 38.2991 25.254 38.8762C24.4895 39.6088 23.6405 40.2305 22.7049 40.7277C22.1123 41.0429 21.4912 41.3106 20.8483 41.5099C19.7379 41.8546 18.6006 42.0136 17.4306 41.9992C16.8299 41.992 16.2474 41.8898 15.678 41.7567C14.8553 41.5639 14.0777 41.2134 13.4144 40.686C12.9054 40.2809 12.4074 39.8469 12.0936 39.2569C12.0805 39.2324 12.0761 39.2036 12.0674 39.177L12.0688 39.1763Z" fill="#CD6A19"></path>
<path d="M10.4751 34.7841C10.521 35.0683 10.5232 35.3525 10.4737 35.636C10.4468 35.3518 10.4453 35.0676 10.4751 34.7841Z" fill="#F3BB35"></path>
<path d="M30.4884 23.7268C30.484 23.1699 30.6362 22.6417 30.8029 22.1193C31.0345 21.3925 31.3636 20.7067 31.7997 20.0792C32.3159 19.3359 32.9079 18.6566 33.6047 18.0651C34.099 17.6456 34.6153 17.2599 35.1708 16.9303C35.789 16.5633 36.4319 16.2453 37.1141 16.0042C37.7068 15.7948 38.3031 15.6092 38.9278 15.5185C39.8591 15.3825 40.7866 15.2832 41.7325 15.4286C42.3346 15.5207 42.928 15.6401 43.4901 15.8553C44.0609 16.0733 44.5961 16.3741 45.081 16.7576C45.3999 17.0102 45.6758 17.3002 45.9583 17.5873C45.97 17.5988 45.9809 17.6103 45.9926 17.6211L46.0035 17.6326C46.1134 17.8104 46.2226 17.9896 46.3348 18.1666C46.8925 19.0488 47.1066 20.0303 47.1299 21.0507C47.1495 21.9329 46.8823 22.7683 46.5598 23.5793C46.3042 24.2212 45.9285 24.8004 45.5353 25.3711C45.0002 26.1475 44.3427 26.8081 43.6102 27.3902C42.5254 28.2523 41.3153 28.8985 39.9814 29.3151C38.5507 29.762 37.0981 29.9131 35.6113 29.6915C34.3597 29.5051 33.237 29.0345 32.2752 28.2113C32.2249 28.1681 32.1754 28.1242 32.1019 28.1278C31.7152 27.6586 31.2733 27.219 31.0483 26.6498C30.7847 25.9842 30.4629 25.325 30.4877 24.5795C30.5372 24.2953 30.535 24.0118 30.4891 23.7275L30.4884 23.7268ZM37.8728 26.9966C38.7676 27.024 39.8066 26.6973 40.7699 26.1583C41.4427 25.7812 42.0659 25.3286 42.5807 24.7335C43.2105 24.0053 43.6583 23.2001 43.833 22.2567C43.9597 21.5717 43.9189 20.8916 43.6248 20.2519C42.9833 18.8545 41.7849 18.263 40.3207 18.1529C38.7567 18.0356 37.3515 18.5278 36.0889 19.4251C35.3608 19.9425 34.7551 20.5808 34.2949 21.3428C34.051 21.7465 33.8981 22.1948 33.7707 22.6453C33.6702 23.0008 33.695 23.3749 33.6971 23.7434C33.7015 24.5515 34.0008 25.2437 34.5687 25.8143C35.4104 26.6598 36.4588 27.0002 37.8735 26.9966H37.8728Z" fill="#F3BB35"></path>
<path d="M32.1011 28.1278C32.1746 28.1242 32.2241 28.1681 32.2744 28.2113C33.2362 29.0345 34.3589 29.5051 35.6105 29.6915C37.098 29.9131 38.5506 29.762 39.9806 29.3151C41.3144 28.8985 42.5245 28.2523 43.6094 27.3903C44.3426 26.8081 44.9994 26.1468 45.5345 25.3711C45.9277 24.8005 46.3034 24.2212 46.559 23.5793C46.8815 22.7684 47.1487 21.9322 47.1291 21.0507C47.1058 20.0303 46.8917 19.0496 46.334 18.1666C46.2218 17.9896 46.1134 17.8104 46.0027 17.6327C46.1672 17.7356 46.283 17.8881 46.4053 18.0328C46.7104 18.3919 46.9405 18.8013 47.1822 19.2021C47.8426 20.2966 48.1105 21.4796 47.9569 22.741C47.82 23.8708 47.4567 24.9286 46.8334 25.8986C46.3849 26.5973 45.8884 27.2507 45.2862 27.8278C44.5217 28.5603 43.6728 29.182 42.7372 29.6793C42.1445 29.9944 41.5234 30.2621 40.8805 30.4614C39.7701 30.8061 38.6329 30.9652 37.4628 30.9508C36.8621 30.9436 36.2796 30.8414 35.7103 30.7083C34.8875 30.5154 34.1099 30.165 33.4466 29.6375C32.9377 29.2324 32.4396 28.7985 32.1258 28.2084C32.1127 28.184 32.1083 28.1552 32.0996 28.1286L32.1011 28.1278Z" fill="#CD6A19"></path>
<path d="M30.4883 23.7268C30.5342 24.011 30.5364 24.2953 30.4869 24.5788C30.4599 24.2946 30.4585 24.0103 30.4883 23.7268Z" fill="#F3BB35"></path>
<path d="M19.9332 8.37025C19.9289 7.81329 20.081 7.28511 20.2478 6.76269C20.4793 6.03591 20.8084 5.35015 21.2445 4.72267C21.7608 3.97934 22.3527 3.30005 23.0495 2.70855C23.5439 2.28904 24.0601 1.90334 24.6156 1.57377C25.2338 1.20678 25.8767 0.888724 26.5589 0.647663C27.1516 0.438264 27.7479 0.252611 28.3726 0.161943C29.3039 0.0259417 30.2315 -0.073361 31.1773 0.0719951C31.7794 0.164102 32.3728 0.283553 32.9349 0.498709C33.5057 0.716743 34.0409 1.01753 34.5258 1.40107C34.8447 1.65364 35.1207 1.94364 35.4032 2.23075C35.4148 2.24226 35.4257 2.25378 35.4374 2.26457L35.4483 2.27608C35.5583 2.45382 35.6675 2.633 35.7796 2.81001C36.3373 3.69223 36.5514 4.67374 36.5747 5.69411C36.5943 6.57632 36.3271 7.41176 36.0046 8.22273C35.749 8.8646 35.3733 9.44387 34.9801 10.0145C34.445 10.7909 33.7875 11.4515 33.055 12.0337C31.9702 12.8957 30.7601 13.5419 29.4262 13.9585C27.9955 14.4054 26.5429 14.5565 25.0561 14.3349C23.8045 14.1485 22.6818 13.6779 21.72 12.8547C21.6697 12.8115 21.6202 12.7676 21.5467 12.7712C21.1601 12.3021 20.7181 11.8624 20.4931 11.2932C20.2296 10.6276 19.9077 9.96844 19.9325 9.22295C19.982 8.93872 19.9798 8.6552 19.934 8.37097L19.9332 8.37025ZM27.3176 11.64C28.2125 11.6674 29.2515 11.3407 30.2147 10.8017C30.8875 10.4247 31.5107 9.97204 32.0255 9.37695C32.6553 8.64873 33.1031 7.84351 33.2778 6.90014C33.4045 6.21509 33.3638 5.53508 33.0696 4.89537C32.4282 3.49794 31.2297 2.90644 29.7655 2.79634C28.2015 2.67905 26.7963 3.17125 25.5338 4.06857C24.8057 4.58595 24.1999 5.22422 23.7397 5.98626C23.4958 6.38995 23.3429 6.83825 23.2155 7.28871C23.115 7.64419 23.1398 8.01837 23.142 8.3868C23.1463 9.19489 23.4456 9.88713 24.0135 10.4578C24.8552 11.3033 25.9036 11.6436 27.3183 11.64H27.3176Z" fill="#F3BB35"></path>
<path d="M21.5454 12.7711C21.6189 12.7675 21.6684 12.8114 21.7187 12.8546C22.6805 13.6778 23.8032 14.1484 25.0548 14.3348C26.5424 14.5564 27.9949 14.4053 29.4249 13.9585C30.7588 13.5418 31.9689 12.8956 33.0538 12.0336C33.7869 11.4514 34.4437 10.7901 34.9788 10.0144C35.372 9.44378 35.7477 8.86452 36.0033 8.22265C36.3258 7.41168 36.593 6.57552 36.5734 5.69403C36.5501 4.67366 36.336 3.69286 35.7783 2.80993C35.6662 2.63291 35.5577 2.45374 35.447 2.276C35.6116 2.3789 35.7273 2.53145 35.8497 2.67609C36.1547 3.03516 36.3848 3.44461 36.6265 3.84542C37.2869 4.9399 37.5549 6.1229 37.4012 7.38433C37.2644 8.51408 36.901 9.57187 36.2778 10.5419C35.8293 11.2406 35.3327 11.894 34.7306 12.4711C33.9661 13.2036 33.1171 13.8253 32.1815 14.3226C31.5888 14.6377 30.9677 14.9054 30.3248 15.1048C29.2145 15.4494 28.0772 15.6085 26.9071 15.5941C26.3064 15.5869 25.724 15.4847 25.1546 15.3516C24.3318 15.1587 23.5542 14.8083 22.8909 14.2808C22.382 13.8757 21.884 13.4418 21.5702 12.8517C21.5571 12.8273 21.5527 12.7985 21.5439 12.7719L21.5454 12.7711Z" fill="#CD6A19"></path>
<path d="M19.9332 8.37024C19.979 8.65448 19.9812 8.93871 19.9317 9.22223C19.9048 8.93799 19.9033 8.65376 19.9332 8.37024Z" fill="#F3BB35"></path>
</g>
<defs>
<clipPath id="SvgjsClipPath1020">
<rect width="48" height="42" fill="white"></rect>
</clipPath>
</defs>
</svg><style>@media (prefers-color-scheme: light) { :root { filter: none; } }
@media (prefers-color-scheme: dark) { :root { filter: none; } }
</style></svg>