<svg width="48" height="42" viewBox="0 0 48 42" fill="none" xmlns="http://www.w3.org/2000/svg">
<g clip-path="url(#clip0_649_17998)">
<path d="M0.0216046 19.228C0.017236 18.6711 0.169409 18.1429 0.336144 17.6205C0.56768 16.8937 0.896781 16.2079 1.33291 15.5805C1.84914 14.8371 2.44108 14.1578 3.13787 13.5663C3.63225 13.1468 4.14848 12.7611 4.70402 12.4316C5.32217 12.0646 5.96509 11.7465 6.64732 11.5055C7.23999 11.2961 7.8363 11.1104 8.46101 11.0197C9.39225 10.8837 10.3199 10.7844 11.2657 10.9298C11.8678 11.0219 12.4612 11.1413 13.0233 11.3565C13.5941 11.5745 14.1293 11.8753 14.6142 12.2589C14.9331 12.5114 15.209 12.8014 15.4915 13.0885C15.5032 13.1001 15.5141 13.1116 15.5258 13.1224L15.5367 13.1339C15.6466 13.3116 15.7558 13.4908 15.868 13.6678C16.4257 14.55 16.6398 15.5315 16.6631 16.5519C16.6827 17.4341 16.4155 18.2695 16.093 19.0805C15.8374 19.7224 15.4617 20.3017 15.0685 20.8723C14.5334 21.6487 13.8759 22.3093 13.1434 22.8914C12.0586 23.7535 10.8485 24.3997 9.51457 24.8163C8.08386 25.2632 6.6313 25.4143 5.14452 25.1927C3.89291 25.0063 2.77018 24.5357 1.80836 23.7125C1.75812 23.6693 1.70861 23.6254 1.63507 23.629C1.24845 23.1598 0.806496 22.7202 0.581514 22.151C0.317941 21.4854 -0.00387893 20.8262 0.0208765 20.0807C0.0703873 19.7965 0.068203 19.513 0.0223327 19.2288L0.0216046 19.228ZM7.406 22.4978C8.30083 22.5252 9.33983 22.1985 10.3031 21.6595C10.9759 21.2824 11.5991 20.8298 12.1139 20.2347C12.7437 19.5065 13.1915 18.7013 13.3662 17.7579C13.4929 17.0729 13.4521 16.3929 13.158 15.7532C12.5165 14.3557 11.3181 13.7642 9.85387 13.6541C8.28991 13.5368 6.88468 14.029 5.62215 14.9264C4.89405 15.4437 4.28827 16.082 3.82811 16.8441C3.5842 17.2477 3.4313 17.696 3.30388 18.1465C3.2034 18.502 3.22816 18.8762 3.23034 19.2446C3.23471 20.0527 3.53396 20.7449 4.10188 21.3155C4.94356 22.1611 5.99203 22.5014 7.40672 22.4978H7.406Z" fill="#F3BB35"/>
<path d="M1.63427 23.6291C1.70781 23.6255 1.75732 23.6693 1.80756 23.7125C2.76938 24.5357 3.89211 25.0063 5.14371 25.1927C6.63122 25.4143 8.08378 25.2632 9.51377 24.8164C10.8476 24.3997 12.0577 23.7535 13.1426 22.8915C13.8758 22.3093 14.5326 21.648 15.0677 20.8723C15.4609 20.3017 15.8366 19.7224 16.0922 19.0806C16.4147 18.2696 16.6819 17.4334 16.6623 16.5519C16.639 15.5316 16.4249 14.5508 15.8672 13.6678C15.755 13.4908 15.6466 13.3116 15.5359 13.1339C15.7004 13.2368 15.8162 13.3894 15.9385 13.534C16.2436 13.8931 16.4737 14.3025 16.7154 14.7033C17.3758 15.7978 17.6437 16.9808 17.4901 18.2422C17.3532 19.372 16.9899 20.4298 16.3666 21.3998C15.9181 22.0985 15.4216 22.7519 14.8194 23.329C14.0549 24.0615 13.206 24.6832 12.2704 25.1805C11.6777 25.4957 11.0566 25.7633 10.4137 25.9627C9.30335 26.3073 8.16606 26.4664 6.996 26.452C6.39532 26.4448 5.81284 26.3426 5.24346 26.2095C4.42071 26.0166 3.6431 25.6662 2.9798 25.1387C2.47086 24.7336 1.97284 24.2997 1.65902 23.7096C1.64592 23.6852 1.64155 23.6564 1.63281 23.6298L1.63427 23.6291Z" fill="#CD6A19"/>
<path d="M0.022025 19.228C0.0678953 19.5123 0.0700796 19.7965 0.0205688 20.08C-0.00637088 19.7958 -0.00782708 19.5115 0.022025 19.228Z" fill="#F3BB35"/>
<path d="M31.9571 27.8479C31.9687 27.8594 31.9796 27.8716 31.9906 27.8832C31.9651 27.8846 31.9563 27.8709 31.9571 27.8479Z" fill="#CD6A19"/>
<path d="M15.5264 13.1217C15.5148 13.1101 15.5038 13.0986 15.4922 13.0878C15.5228 13.0806 15.5286 13.0979 15.5264 13.1217Z" fill="#CD6A19"/>
<path d="M21.5073 12.6403C21.516 12.6547 21.5255 12.669 21.5342 12.6827C21.5065 12.6798 21.4985 12.6654 21.5073 12.6403Z" fill="#CD6A19"/>
<path d="M21.4774 12.5935C21.484 12.6036 21.4913 12.6137 21.4978 12.6237C21.4731 12.6252 21.4672 12.6151 21.4774 12.5935Z" fill="#CD6A19"/>
<path d="M7.4072 22.497C5.99323 22.5006 4.94403 22.1603 4.10235 21.3148C3.53443 20.7441 3.23518 20.0519 3.23081 19.2438C3.22863 18.8754 3.20387 18.5012 3.30435 18.1457C3.43177 17.6953 3.5854 17.247 3.82858 16.8433C4.28874 16.0812 4.89452 15.443 5.62262 14.9256C6.88515 14.0282 8.29038 13.5361 9.85434 13.6533C11.3186 13.7634 12.517 14.3549 13.1585 15.7524C13.4519 16.3921 13.4927 17.0714 13.3667 17.7571C13.1927 18.7005 12.7442 19.5057 12.1144 20.2339C11.6003 20.829 10.9763 21.2817 10.3036 21.6587C9.34103 22.1984 8.3013 22.5244 7.40647 22.497H7.4072ZM8.58453 15.5948C7.42176 15.5826 6.15632 16.4533 5.82868 17.6873C5.39182 19.3345 6.53129 20.6679 8.20083 20.557C9.4983 20.4714 10.7499 19.4669 10.9035 18.032C10.953 17.5686 10.9013 17.1131 10.6618 16.7044C10.2016 15.92 9.48447 15.5862 8.58453 15.5948Z" fill="#CD6A19"/>
<path d="M37.6103 26.9924C36.5837 27.0283 35.6961 26.7556 34.9221 26.1627C34.1525 25.5733 33.7186 24.7868 33.6589 23.824C33.5759 22.4863 34.1067 21.3796 34.9811 20.3866C35.584 19.7022 36.2924 19.1705 37.1057 18.7754C38.1083 18.2875 39.1735 18.004 40.297 18.1026C41.7379 18.2293 42.9444 18.7869 43.604 20.1491C44.0416 21.0529 44.0045 21.9927 43.6703 22.9202C43.1591 24.3385 42.1813 25.3675 40.8765 26.1109C39.8521 26.6944 38.7636 27.0485 37.6103 26.9931V26.9924ZM42.2519 22.4813C42.2345 22.4136 42.166 22.3647 42.1129 22.3057C41.4772 21.6055 40.8416 20.9061 40.206 20.2074C39.9147 19.8872 39.6228 19.5684 39.3308 19.2496C39.25 19.1611 39.1692 19.0992 39.0548 19.2136C38.7316 19.5375 38.3588 19.8051 38.0297 20.1246C37.5724 20.5679 37.0788 20.9737 36.599 21.394C36.2014 21.7415 35.8024 22.0869 35.402 22.4316C35.2928 22.5252 35.2738 22.6101 35.3816 22.7245C35.6641 23.0224 35.959 23.3124 36.2109 23.6348C36.8188 24.4141 37.571 25.066 38.1855 25.8389C38.2947 25.9763 38.4097 26.0072 38.5488 25.8576C38.6733 25.7244 38.8189 25.61 38.9558 25.4884C39.4 25.0941 39.8441 24.699 40.289 24.3054C40.9151 23.7513 41.5428 23.198 42.1689 22.6439C42.2126 22.605 42.2592 22.5655 42.2512 22.482L42.2519 22.4813Z" fill="#CD6A19"/>
<path d="M17.5041 38.1782C16.7112 38.184 15.9562 38.0192 15.266 37.6364C14.3347 37.1197 13.7377 36.326 13.5593 35.2913C13.4508 34.6624 13.4836 34.0111 13.7209 33.3894C13.8607 33.0239 13.9823 32.6533 14.1957 32.3187C15.041 30.9961 16.2234 30.0923 17.6942 29.5368C18.4754 29.2417 19.2844 29.1216 20.1137 29.1539C21.1527 29.1942 22.1094 29.4878 22.8761 30.2124C23.4433 30.7485 23.7796 31.4127 23.8779 32.1956C23.9282 32.5986 23.8896 32.9821 23.8146 33.3786C23.6974 33.9982 23.4811 34.5753 23.1506 35.1063C22.8812 35.5395 22.5244 35.908 22.1618 36.2699C21.6237 36.806 20.9947 37.2118 20.3102 37.5277C19.8326 37.7487 19.3411 37.9444 18.814 38.0437C18.3793 38.1257 17.9446 38.1689 17.5041 38.1775V38.1782ZM21.5531 34.5731C21.5953 34.5731 21.6849 34.5738 21.7745 34.5731C21.8473 34.5724 21.9099 34.5494 21.9274 34.4702C22.0067 34.1025 22.0861 33.7348 22.1611 33.3664C22.1829 33.2577 22.1312 33.2038 22.014 33.1987C21.7752 33.1872 21.5371 33.1692 21.299 33.1498C20.785 33.1095 20.2717 33.0649 19.7583 33.026C19.6484 33.0174 19.5872 32.98 19.6062 32.8627C19.6455 32.6151 19.679 32.3662 19.727 32.1201C19.8166 31.6566 19.9142 31.194 20.0088 30.732C20.0452 30.5535 20.0168 30.4708 19.7904 30.4787C19.5181 30.488 19.2421 30.4405 18.9698 30.4039C18.7113 30.3686 18.6604 30.3938 18.6123 30.6579C18.4965 31.2954 18.316 31.92 18.2344 32.5655C18.2213 32.6698 18.2461 32.9073 18.0109 32.9037C17.8092 32.9001 17.6083 32.8735 17.4073 32.8605C16.8481 32.8245 16.2889 32.7922 15.7298 32.7533C15.5849 32.7432 15.515 32.7936 15.4793 32.9361C15.4058 33.234 15.3985 33.5412 15.2864 33.8356C15.183 34.1061 15.2128 34.1169 15.515 34.1306C15.582 34.1335 15.6489 34.1464 15.7159 34.15C16.3326 34.1853 16.9457 34.2803 17.5653 34.2702C17.8631 34.2651 17.8922 34.2918 17.8289 34.5796C17.8223 34.6084 17.8143 34.6372 17.8063 34.6652C17.6134 35.3129 17.4852 35.9734 17.3869 36.6405C17.3658 36.7851 17.3862 36.8413 17.542 36.8506C17.8405 36.8672 18.1376 36.906 18.4354 36.9269C18.7696 36.9499 18.7732 36.9362 18.8373 36.606C18.9676 35.9396 19.1074 35.2747 19.2399 34.6084C19.2712 34.4494 19.3411 34.3983 19.5188 34.4155C20.1806 34.4796 20.8447 34.5206 21.5553 34.5738L21.5531 34.5731Z" fill="#CD6A19"/>
<path d="M23.1398 8.14421C23.091 7.34979 23.4055 6.6007 23.8089 5.86816C24.0878 5.36229 24.4685 4.95501 24.8828 4.56068C25.442 4.02746 26.0922 3.63745 26.7824 3.30788C27.903 2.77395 29.0891 2.58901 30.3159 2.7833C31.4787 2.96751 32.4311 3.51224 33.0317 4.54844C33.4271 5.23061 33.505 5.97106 33.4016 6.74605C33.3004 7.50666 33.0237 8.19746 32.589 8.82062C31.7561 10.0137 30.6239 10.8347 29.2522 11.3284C27.9496 11.7968 26.6339 11.8601 25.3219 11.36C24.4227 11.0168 23.7616 10.4131 23.3604 9.5402C23.2395 9.27827 23.1376 8.66807 23.1398 8.14421ZM31.0491 5.09964C30.9581 5.11188 30.9202 5.11404 30.8846 5.12195C29.946 5.3148 28.9915 5.40547 28.0472 5.5645C27.1749 5.71129 26.3012 5.84801 25.4275 5.98329C25.2622 6.0092 25.2418 6.06101 25.3386 6.19269C26.3187 7.52321 27.2958 8.85516 28.2736 10.1871C28.4068 10.3684 28.4294 10.3692 28.535 10.1662C29.2245 8.83933 29.9133 7.51241 30.6006 6.18406C30.7593 5.8768 30.9137 5.56737 31.0666 5.25651C31.1008 5.18671 31.154 5.09389 31.0506 5.09964H31.0491Z" fill="#CD6A19"/>
<path d="M8.58399 15.5949C9.48392 15.5863 10.2011 15.9209 10.6613 16.7045C10.9008 17.1125 10.9525 17.5687 10.903 18.0321C10.7494 19.467 9.49776 20.4715 8.20028 20.5571C6.53148 20.6672 5.39127 19.3339 5.82813 17.6874C6.15578 16.4534 7.42122 15.5827 8.58399 15.5949Z" fill="#F3BB35"/>
<path d="M42.2523 22.4813C42.2603 22.5655 42.213 22.6051 42.17 22.6432C41.5439 23.1973 40.9162 23.7507 40.2901 24.3047C39.8452 24.6984 39.4011 25.0934 38.9569 25.4877C38.82 25.6093 38.6737 25.7238 38.5499 25.8569C38.4108 26.0066 38.2958 25.9756 38.1866 25.8382C37.5721 25.0653 36.8199 24.4134 36.212 23.6341C35.9608 23.3117 35.6652 23.0224 35.3827 22.7238C35.2742 22.6094 35.2939 22.5245 35.4031 22.4309C35.8035 22.0863 36.2025 21.7409 36.6001 21.3933C37.0799 20.9738 37.5735 20.5672 38.0308 20.124C38.3599 19.8045 38.7327 19.5368 39.0559 19.213C39.1703 19.0978 39.2511 19.1597 39.3319 19.2489C39.6239 19.5677 39.9158 19.8872 40.2071 20.2067C40.8434 20.9061 41.4791 21.6056 42.114 22.305C42.1671 22.364 42.2356 22.413 42.253 22.4806L42.2523 22.4813Z" fill="#F3BB35"/>
<path d="M21.5532 34.5732C20.8426 34.52 20.1786 34.479 19.5167 34.4149C19.3391 34.3976 19.2699 34.4487 19.2379 34.6078C19.1054 35.2741 18.9648 35.9383 18.8352 36.6053C18.7712 36.9356 18.7675 36.9493 18.4333 36.9263C18.1348 36.9054 17.8377 36.8673 17.54 36.85C17.3841 36.8413 17.3638 36.7845 17.3849 36.6399C17.4832 35.9721 17.6113 35.3122 17.8043 34.6646C17.813 34.6365 17.821 34.6078 17.8268 34.579C17.8902 34.2911 17.861 34.2645 17.5633 34.2696C16.9436 34.2796 16.3306 34.1846 15.7139 34.1494C15.6469 34.1458 15.5799 34.1328 15.5129 34.13C15.2108 34.1163 15.1809 34.1062 15.2843 33.8349C15.3964 33.5406 15.4037 33.2326 15.4772 32.9354C15.5122 32.7922 15.5821 32.7419 15.7277 32.7527C16.2869 32.7915 16.8461 32.8239 17.4053 32.8599C17.6069 32.8728 17.8079 32.8995 18.0088 32.9031C18.244 32.9074 18.2193 32.6692 18.2324 32.5649C18.3139 31.9194 18.4952 31.2948 18.6103 30.6572C18.6583 30.3924 18.7093 30.3672 18.9678 30.4032C19.2401 30.4406 19.516 30.4874 19.7883 30.4781C20.014 30.4701 20.0432 30.5536 20.0068 30.7314C19.9114 31.194 19.8145 31.656 19.725 32.1194C19.6777 32.3655 19.6442 32.6145 19.6041 32.862C19.5852 32.9793 19.6471 33.0175 19.7563 33.0254C20.2703 33.0642 20.7836 33.1089 21.2969 33.1492C21.535 33.1679 21.7739 33.1866 22.0119 33.1981C22.1292 33.2038 22.1809 33.2571 22.159 33.3658C22.084 33.7342 22.0047 34.1019 21.9253 34.4696C21.9086 34.5488 21.8459 34.5718 21.7724 34.5725C21.6828 34.5739 21.5926 34.5725 21.5511 34.5725L21.5532 34.5732Z" fill="#F3BB35"/>
<path d="M31.0494 5.09974C31.1528 5.09398 31.0997 5.18753 31.0654 5.25661C30.9125 5.56675 30.7589 5.87689 30.5995 6.18415C29.9121 7.51179 29.2241 8.83942 28.5338 10.1663C28.4283 10.3693 28.4064 10.3685 28.2724 10.1872C27.2946 8.85525 26.3175 7.5233 25.3375 6.19279C25.2406 6.06111 25.261 6.0093 25.4263 5.98339C26.3 5.84811 27.1745 5.71139 28.046 5.56459C28.9904 5.40556 29.9449 5.3149 30.8834 5.12205C30.9198 5.11485 30.957 5.11197 31.048 5.09974H31.0494Z" fill="#F3BB35"/>
<path d="M10.4572 34.7747C10.4528 34.2177 10.605 33.6895 10.7717 33.1671C11.0032 32.4403 11.3323 31.7546 11.7685 31.1271C12.2847 30.3838 12.8766 29.7045 13.5734 29.113C14.0678 28.6935 14.584 28.3078 15.1396 27.9782C15.7577 27.6112 16.4006 27.2931 17.0829 27.0521C17.6755 26.8427 18.2718 26.657 18.8966 26.5664C19.8278 26.4304 20.7554 26.3311 21.7012 26.4764C22.3033 26.5685 22.8967 26.688 23.4588 26.9031C24.0297 27.1212 24.5648 27.4219 25.0497 27.8055C25.3686 28.0581 25.6446 28.3481 25.9271 28.6352C25.9387 28.6467 25.9497 28.6582 25.9613 28.669L25.9722 28.6805C26.0822 28.8582 26.1914 29.0374 26.3035 29.2144C26.8612 30.0966 27.0753 31.0782 27.0986 32.0985C27.1183 32.9807 26.8511 33.8162 26.5285 34.6271C26.2729 35.269 25.8972 35.8483 25.5041 36.4189C24.9689 37.1953 24.3114 37.8559 23.579 38.4381C22.4941 39.3001 21.284 39.9463 19.9501 40.363C18.5194 40.8098 17.0668 40.9609 15.5801 40.7393C14.3285 40.5529 13.2057 40.0823 12.2439 39.2591C12.1937 39.2159 12.1442 39.172 12.0706 39.1756C11.684 38.7065 11.242 38.2668 11.0171 37.6976C10.7535 37.032 10.4317 36.3729 10.4564 35.6274C10.5059 35.3431 10.5037 35.0596 10.4579 34.7754L10.4572 34.7747ZM17.8415 38.0445C18.7364 38.0718 19.7754 37.7451 20.7387 37.2061C21.4114 36.8291 22.0347 36.3765 22.5494 35.7814C23.1792 35.0531 23.627 34.2479 23.8018 33.3046C23.9285 32.6195 23.8877 31.9395 23.5935 31.2998C22.9521 29.9024 21.7536 29.3109 20.2894 29.2008C18.7255 29.0835 17.3202 29.5757 16.0577 30.473C15.3296 30.9904 14.7238 31.6286 14.2637 32.3907C14.0197 32.7944 13.8668 33.2427 13.7394 33.6931C13.6389 34.0486 13.6637 34.4228 13.6659 34.7912C13.6703 35.5993 13.9695 36.2916 14.5374 36.8622C15.3791 37.7077 16.4276 38.0481 17.8423 38.0445H17.8415Z" fill="#F3BB35"/>
<path d="M12.0698 39.1763C12.1434 39.1727 12.1929 39.2166 12.2431 39.2598C13.2049 40.083 14.3277 40.5536 15.5793 40.74C17.0668 40.9616 18.5193 40.8105 19.9493 40.3636C21.2832 39.947 22.4933 39.3008 23.5782 38.4387C24.3114 37.8566 24.9681 37.1953 25.5033 36.4196C25.8964 35.8489 26.2721 35.2697 26.5277 34.6278C26.8502 33.8168 27.1175 32.9807 27.0978 32.0992C27.0745 31.0788 26.8604 30.098 26.3027 29.2151C26.1906 29.0381 26.0821 28.8589 25.9714 28.6812C26.136 28.7841 26.2517 28.9366 26.3741 29.0812C26.6791 29.4403 26.9092 29.8498 27.151 30.2506C27.8113 31.3451 28.0793 32.5281 27.9257 33.7895C27.7888 34.9192 27.4254 35.977 26.8022 36.947C26.3537 37.6457 25.8571 38.2991 25.255 38.8762C24.4905 39.6088 23.6415 40.2305 22.7059 40.7277C22.1132 41.0429 21.4922 41.3106 20.8492 41.5099C19.7389 41.8546 18.6016 42.0136 17.4315 41.9992C16.8309 41.992 16.2484 41.8898 15.679 41.7567C14.8563 41.5639 14.0786 41.2134 13.4153 40.686C12.9064 40.2809 12.4084 39.8469 12.0946 39.2569C12.0815 39.2324 12.0771 39.2036 12.0684 39.177L12.0698 39.1763Z" fill="#CD6A19"/>
<path d="M10.4751 34.7841C10.521 35.0683 10.5232 35.3525 10.4737 35.636C10.4468 35.3518 10.4453 35.0676 10.4751 34.7841Z" fill="#F3BB35"/>
<path d="M30.4884 23.7268C30.484 23.1699 30.6362 22.6417 30.8029 22.1193C31.0345 21.3925 31.3636 20.7067 31.7997 20.0792C32.3159 19.3359 32.9079 18.6566 33.6047 18.0651C34.099 17.6456 34.6153 17.2599 35.1708 16.9303C35.789 16.5633 36.4319 16.2453 37.1141 16.0042C37.7068 15.7948 38.3031 15.6092 38.9278 15.5185C39.8591 15.3825 40.7866 15.2832 41.7325 15.4286C42.3346 15.5207 42.928 15.6401 43.4901 15.8553C44.0609 16.0733 44.5961 16.3741 45.081 16.7576C45.3999 17.0102 45.6758 17.3002 45.9583 17.5873C45.97 17.5988 45.9809 17.6103 45.9926 17.6211L46.0035 17.6326C46.1134 17.8104 46.2226 17.9896 46.3348 18.1666C46.8925 19.0488 47.1066 20.0303 47.1299 21.0507C47.1495 21.9329 46.8823 22.7683 46.5598 23.5793C46.3042 24.2212 45.9285 24.8004 45.5353 25.3711C45.0002 26.1475 44.3427 26.8081 43.6102 27.3902C42.5254 28.2523 41.3153 28.8985 39.9814 29.3151C38.5507 29.762 37.0981 29.9131 35.6113 29.6915C34.3597 29.5051 33.237 29.0345 32.2752 28.2113C32.2249 28.1681 32.1754 28.1242 32.1019 28.1278C31.7152 27.6586 31.2733 27.219 31.0483 26.6498C30.7847 25.9842 30.4629 25.325 30.4877 24.5795C30.5372 24.2953 30.535 24.0118 30.4891 23.7275L30.4884 23.7268ZM37.8728 26.9966C38.7676 27.024 39.8066 26.6973 40.7699 26.1583C41.4427 25.7812 42.0659 25.3286 42.5807 24.7335C43.2105 24.0053 43.6583 23.2001 43.833 22.2567C43.9597 21.5717 43.9189 20.8916 43.6248 20.2519C42.9833 18.8545 41.7849 18.263 40.3207 18.1529C38.7567 18.0356 37.3515 18.5278 36.0889 19.4251C35.3608 19.9425 34.7551 20.5808 34.2949 21.3428C34.051 21.7465 33.8981 22.1948 33.7707 22.6453C33.6702 23.0008 33.695 23.3749 33.6971 23.7434C33.7015 24.5515 34.0008 25.2437 34.5687 25.8143C35.4104 26.6598 36.4588 27.0002 37.8735 26.9966H37.8728Z" fill="#F3BB35"/>
<path d="M32.1011 28.1278C32.1746 28.1242 32.2241 28.1681 32.2744 28.2113C33.2362 29.0345 34.3589 29.5051 35.6105 29.6915C37.098 29.9131 38.5506 29.762 39.9806 29.3151C41.3144 28.8985 42.5245 28.2523 43.6094 27.3903C44.3426 26.8081 44.9994 26.1468 45.5345 25.3711C45.9277 24.8005 46.3034 24.2212 46.559 23.5793C46.8815 22.7684 47.1487 21.9322 47.1291 21.0507C47.1058 20.0303 46.8917 19.0496 46.334 18.1666C46.2218 17.9896 46.1134 17.8104 46.0027 17.6327C46.1672 17.7356 46.283 17.8881 46.4053 18.0328C46.7104 18.3919 46.9405 18.8013 47.1822 19.2021C47.8426 20.2966 48.1105 21.4796 47.9569 22.741C47.82 23.8708 47.4567 24.9286 46.8334 25.8986C46.3849 26.5973 45.8884 27.2507 45.2862 27.8278C44.5217 28.5603 43.6728 29.182 42.7372 29.6793C42.1445 29.9944 41.5234 30.2621 40.8805 30.4614C39.7701 30.8061 38.6329 30.9652 37.4628 30.9508C36.8621 30.9436 36.2796 30.8414 35.7103 30.7083C34.8875 30.5154 34.1099 30.165 33.4466 29.6375C32.9377 29.2324 32.4396 28.7985 32.1258 28.2084C32.1127 28.184 32.1083 28.1552 32.0996 28.1286L32.1011 28.1278Z" fill="#CD6A19"/>
<path d="M30.4888 23.7268C30.5347 24.011 30.5369 24.2953 30.4874 24.5788C30.4604 24.2946 30.459 24.0103 30.4888 23.7268Z" fill="#F3BB35"/>
<path d="M19.9337 8.37025C19.9293 7.81329 20.0815 7.28511 20.2483 6.76269C20.4798 6.03591 20.8089 5.35015 21.245 4.72267C21.7612 3.97934 22.3532 3.30005 23.05 2.70855C23.5444 2.28904 24.0606 1.90334 24.6161 1.57377C25.2343 1.20678 25.8772 0.888724 26.5594 0.647663C27.1521 0.438264 27.7484 0.252611 28.3731 0.161943C29.3044 0.0259417 30.232 -0.073361 31.1778 0.0719951C31.7799 0.164102 32.3733 0.283553 32.9354 0.498709C33.5062 0.716743 34.0414 1.01753 34.5263 1.40107C34.8452 1.65364 35.1212 1.94364 35.4037 2.23075C35.4153 2.24226 35.4262 2.25378 35.4379 2.26457L35.4488 2.27608C35.5587 2.45382 35.668 2.633 35.7801 2.81001C36.3378 3.69223 36.5519 4.67374 36.5752 5.69411C36.5948 6.57632 36.3276 7.41176 36.0051 8.22273C35.7495 8.8646 35.3738 9.44387 34.9806 10.0145C34.4455 10.7909 33.788 11.4515 33.0555 12.0337C31.9707 12.8957 30.7606 13.5419 29.4267 13.9585C27.996 14.4054 26.5434 14.5565 25.0566 14.3349C23.805 14.1485 22.6823 13.6779 21.7205 12.8547C21.6702 12.8115 21.6207 12.7676 21.5472 12.7712C21.1606 12.3021 20.7186 11.8624 20.4936 11.2932C20.23 10.6276 19.9082 9.96844 19.933 9.22295C19.9825 8.93872 19.9803 8.6552 19.9344 8.37097L19.9337 8.37025ZM27.3181 11.64C28.2129 11.6674 29.2519 11.3407 30.2152 10.8017C30.888 10.4247 31.5112 9.97204 32.026 9.37695C32.6558 8.64873 33.1036 7.84351 33.2783 6.90014C33.405 6.21509 33.3642 5.53508 33.0701 4.89537C32.4286 3.49794 31.2302 2.90644 29.766 2.79634C28.202 2.67905 26.7968 3.17125 25.5343 4.06857C24.8062 4.58595 24.2004 5.22422 23.7402 5.98626C23.4963 6.38995 23.3434 6.83825 23.216 7.28871C23.1155 7.64419 23.1403 8.01837 23.1425 8.3868C23.1468 9.19489 23.4461 9.88713 24.014 10.4578C24.8557 11.3033 25.9041 11.6436 27.3188 11.64H27.3181Z" fill="#F3BB35"/>
<path d="M21.5444 12.7711C21.618 12.7675 21.6675 12.8114 21.7177 12.8546C22.6795 13.6778 23.8023 14.1484 25.0539 14.3348C26.5414 14.5564 27.9939 14.4053 29.4239 13.9585C30.7578 13.5418 31.9679 12.8956 33.0528 12.0336C33.786 11.4514 34.4427 10.7901 34.9779 10.0144C35.371 9.44378 35.7467 8.86452 36.0023 8.22265C36.3249 7.41168 36.5921 6.57552 36.5724 5.69403C36.5491 4.67366 36.3351 3.69286 35.7773 2.80993C35.6652 2.63291 35.5567 2.45374 35.446 2.276C35.6106 2.3789 35.7264 2.53145 35.8487 2.67609C36.1538 3.03516 36.3838 3.44461 36.6256 3.84542C37.2859 4.9399 37.5539 6.1229 37.4003 7.38433C37.2634 8.51408 36.9001 9.57187 36.2768 10.5419C35.8283 11.2406 35.3317 11.894 34.7296 12.4711C33.9651 13.2036 33.1161 13.8253 32.1805 14.3226C31.5878 14.6377 30.9668 14.9054 30.3239 15.1048C29.2135 15.4494 28.0762 15.6085 26.9062 15.5941C26.3055 15.5869 25.723 15.4847 25.1536 15.3516C24.3309 15.1587 23.5533 14.8083 22.89 14.2808C22.381 13.8757 21.883 13.4418 21.5692 12.8517C21.5561 12.8273 21.5517 12.7985 21.543 12.7719L21.5444 12.7711Z" fill="#CD6A19"/>
<path d="M19.9341 8.37024C19.98 8.65448 19.9822 8.93871 19.9327 9.22223C19.9057 8.93799 19.9043 8.65376 19.9341 8.37024Z" fill="#F3BB35"/>
</g>
<defs>
<clipPath id="clip0_649_17998">
<rect width="48" height="42" fill="white"/>
</clipPath>
</defs>
</svg>
