<svg width="45" height="44" viewBox="0 0 45 44" fill="none" xmlns="http://www.w3.org/2000/svg">
<path d="M31.9417 18.3333C32.9543 18.3333 33.7751 17.5125 33.7751 16.5C33.7751 15.4874 32.9543 14.6666 31.9417 14.6666C30.9292 14.6666 30.1084 15.4874 30.1084 16.5C30.1084 17.5125 30.9292 18.3333 31.9417 18.3333Z" fill="#FF9100"/>
<path d="M31.9417 29.3333C32.9543 29.3333 33.7751 28.5125 33.7751 27.5C33.7751 26.4874 32.9543 25.6666 31.9417 25.6666C30.9292 25.6666 30.1084 26.4874 30.1084 27.5C30.1084 28.5125 30.9292 29.3333 31.9417 29.3333Z" fill="#FF9100"/>
<path d="M36.7083 23.8333C37.7209 23.8333 38.5417 23.0125 38.5417 22C38.5417 20.9874 37.7209 20.1666 36.7083 20.1666C35.6958 20.1666 34.875 20.9874 34.875 22C34.875 23.0125 35.6958 23.8333 36.7083 23.8333Z" fill="#FF9100"/>
<path d="M12.9666 18.3333C13.9792 18.3333 14.8 17.5125 14.8 16.5C14.8 15.4874 13.9792 14.6666 12.9666 14.6666C11.9541 14.6666 11.1333 15.4874 11.1333 16.5C11.1333 17.5125 11.9541 18.3333 12.9666 18.3333Z" fill="#FF9100"/>
<path d="M12.9666 29.3333C13.9792 29.3333 14.8 28.5125 14.8 27.5C14.8 26.4874 13.9792 25.6666 12.9666 25.6666C11.9541 25.6666 11.1333 26.4874 11.1333 27.5C11.1333 28.5125 11.9541 29.3333 12.9666 29.3333Z" fill="#FF9100"/>
<path d="M8.20003 23.8333C9.21255 23.8333 10.0334 23.0125 10.0334 22C10.0334 20.9874 9.21255 20.1666 8.20003 20.1666C7.18751 20.1666 6.3667 20.9874 6.3667 22C6.3667 23.0125 7.18751 23.8333 8.20003 23.8333Z" fill="#FF9100"/>
<path d="M29.6502 11.3666C30.6628 11.3666 31.4836 10.5458 31.4836 9.53328C31.4836 8.52076 30.6628 7.69995 29.6502 7.69995C28.6377 7.69995 27.8169 8.52076 27.8169 9.53328C27.8169 10.5458 28.6377 11.3666 29.6502 11.3666Z" fill="#FF9100"/>
<path d="M15.3499 11.3666C16.3625 11.3666 17.1833 10.5458 17.1833 9.53328C17.1833 8.52076 16.3625 7.69995 15.3499 7.69995C14.3374 7.69995 13.5166 8.52076 13.5166 9.53328C13.5166 10.5458 14.3374 11.3666 15.3499 11.3666Z" fill="#FF9100"/>
<path d="M22.5916 12.8333C23.6042 12.8333 24.425 12.0125 24.425 11C24.425 9.98744 23.6042 9.16663 22.5916 9.16663C21.5791 9.16663 20.7583 9.98744 20.7583 11C20.7583 12.0125 21.5791 12.8333 22.5916 12.8333Z" fill="#FF9100"/>
<path d="M29.6502 36.6667C30.6628 36.6667 31.4836 35.8459 31.4836 34.8333C31.4836 33.8208 30.6628 33 29.6502 33C28.6377 33 27.8169 33.8208 27.8169 34.8333C27.8169 35.8459 28.6377 36.6667 29.6502 36.6667Z" fill="#FF9100"/>
<path d="M15.3499 36.6667C16.3625 36.6667 17.1833 35.8459 17.1833 34.8333C17.1833 33.8208 16.3625 33 15.3499 33C14.3374 33 13.5166 33.8208 13.5166 34.8333C13.5166 35.8459 14.3374 36.6667 15.3499 36.6667Z" fill="#FF9100"/>
<path d="M22.5916 35.2C23.6042 35.2 24.425 34.3792 24.425 33.3667C24.425 32.3541 23.6042 31.5333 22.5916 31.5333C21.5791 31.5333 20.7583 32.3541 20.7583 33.3667C20.7583 34.3792 21.5791 35.2 22.5916 35.2Z" fill="#FF9100"/>
<path d="M25.7082 18.7917C26.9738 18.7917 27.9998 17.7657 27.9998 16.5C27.9998 15.2344 26.9738 14.2084 25.7082 14.2084C24.4425 14.2084 23.4165 15.2344 23.4165 16.5C23.4165 17.7657 24.4425 18.7917 25.7082 18.7917Z" fill="#FF9100"/>
<path d="M19.2917 18.7917C20.5573 18.7917 21.5833 17.7657 21.5833 16.5C21.5833 15.2344 20.5573 14.2084 19.2917 14.2084C18.026 14.2084 17 15.2344 17 16.5C17 17.7657 18.026 18.7917 19.2917 18.7917Z" fill="#FF9100"/>
<path d="M28.9167 24.2917C30.1823 24.2917 31.2083 23.2657 31.2083 22C31.2083 20.7344 30.1823 19.7084 28.9167 19.7084C27.651 19.7084 26.625 20.7344 26.625 22C26.625 23.2657 27.651 24.2917 28.9167 24.2917Z" fill="#FF9100"/>
<path d="M16.0832 24.2917C17.3488 24.2917 18.3748 23.2657 18.3748 22C18.3748 20.7344 17.3488 19.7084 16.0832 19.7084C14.8175 19.7084 13.7915 20.7344 13.7915 22C13.7915 23.2657 14.8175 24.2917 16.0832 24.2917Z" fill="#FF9100"/>
<path d="M19.2917 29.7917C20.5573 29.7917 21.5833 28.7657 21.5833 27.5C21.5833 26.2344 20.5573 25.2084 19.2917 25.2084C18.026 25.2084 17 26.2344 17 27.5C17 28.7657 18.026 29.7917 19.2917 29.7917Z" fill="#FF9100"/>
<path d="M25.7082 29.7917C26.9738 29.7917 27.9998 28.7657 27.9998 27.5C27.9998 26.2344 26.9738 25.2084 25.7082 25.2084C24.4425 25.2084 23.4165 26.2344 23.4165 27.5C23.4165 28.7657 24.4425 29.7917 25.7082 29.7917Z" fill="#FF9100"/>
<path d="M22.5001 6.10496C21.6017 6.10496 20.8867 5.38996 20.8867 4.49163C20.8867 3.5933 21.6017 2.8783 22.5001 2.8783C23.3984 2.8783 24.1134 3.5933 24.1134 4.49163C24.1134 5.38996 23.3984 6.10496 22.5001 6.10496Z" fill="#FF9100"/>
<path d="M32.1248 6.59998C31.3548 6.59998 30.7314 5.97664 30.7314 5.22498C30.7314 4.47331 31.3548 3.84998 32.1064 3.84998C32.8581 3.84998 33.4998 4.47331 33.4998 5.22498C33.4998 5.97664 32.8948 6.59998 32.1248 6.59998Z" fill="#FF9100"/>
<path d="M12.875 6.59998C12.1233 6.59998 11.5 5.97664 11.5 5.22498C11.5 4.47331 12.105 3.84998 12.875 3.84998H12.8934C13.645 3.84998 14.2684 4.47331 14.2684 5.22498C14.2684 5.97664 13.645 6.59998 12.875 6.59998Z" fill="#FF9100"/>
<path d="M22.5001 41.03C21.6017 41.03 20.8867 40.315 20.8867 39.4167C20.8867 38.5183 21.6017 37.8033 22.5001 37.8033C23.3984 37.8033 24.1134 38.5183 24.1134 39.4167C24.1134 40.315 23.3984 41.03 22.5001 41.03Z" fill="#FF9100"/>
<path d="M32.1248 40.0583C31.3548 40.0583 30.7314 39.435 30.7314 38.6833C30.7314 37.9317 31.3548 37.3083 32.1064 37.3083C32.8581 37.3083 33.4998 37.9317 33.4998 38.6833C33.4998 39.435 32.8948 40.0583 32.1248 40.0583Z" fill="#FF9100"/>
<path d="M12.875 40.0583C12.1233 40.0583 11.5 39.435 11.5 38.6833C11.5 37.9317 12.105 37.3083 12.875 37.3083H12.8934C13.645 37.3083 14.2684 37.9317 14.2684 38.6833C14.2684 39.435 13.645 40.0583 12.875 40.0583Z" fill="#FF9100"/>
<path d="M3.3418 23.6134C2.4618 23.6134 1.72852 22.8984 1.72852 22.0184V22.0001C1.72852 21.1201 2.44347 20.3867 3.3418 20.3867C4.24014 20.3867 4.95514 21.1017 4.95514 22.0001C4.95514 22.8984 4.2218 23.6134 3.3418 23.6134Z" fill="#FF9100"/>
<path d="M7.375 32.5416C6.62333 32.5416 6 31.9366 6 31.1666V31.1483C6 30.3966 6.62333 29.7733 7.375 29.7733C8.12667 29.7733 8.75 30.3966 8.75 31.1483C8.75 31.9 8.12667 32.5416 7.375 32.5416Z" fill="#FF9100"/>
<path d="M7.375 14.2267C6.62333 14.2267 6 13.6034 6 12.8517C6 12.1 6.62333 11.4767 7.375 11.4767C8.12667 11.4767 8.75 12.0817 8.75 12.8334V12.8517C8.75 13.6034 8.12667 14.2267 7.375 14.2267Z" fill="#FF9100"/>
<path d="M41.7501 23.6134C40.8701 23.6134 40.1367 22.8984 40.1367 22.0184V22.0001C40.1367 21.1201 40.8517 20.3867 41.7501 20.3867C42.6484 20.3867 43.3634 21.1017 43.3634 22.0001C43.3634 22.8984 42.6301 23.6134 41.7501 23.6134Z" fill="#FF9100"/>
<path d="M37.7168 32.5416C36.9651 32.5416 36.3418 31.9366 36.3418 31.1666V31.1483C36.3418 30.3966 36.9651 29.7733 37.7168 29.7733C38.4685 29.7733 39.0918 30.3966 39.0918 31.1483C39.0918 31.9 38.4685 32.5416 37.7168 32.5416Z" fill="#FF9100"/>
<path d="M37.7168 14.2267C36.9651 14.2267 36.3418 13.6034 36.3418 12.8517C36.3418 12.1 36.9651 11.4767 37.7168 11.4767C38.4685 11.4767 39.0918 12.0817 39.0918 12.8517V12.87C39.0918 13.6034 38.4685 14.2267 37.7168 14.2267Z" fill="#FF9100"/>
</svg>
